# xmcd
#
# Track frame offsets: 
#        150
#        15395
#        41787
#        59840
#        79377
#        107295
#        125315
#        150382
#        169862
#        189365
#
# Disc length: 2960 seconds
#
# Revision: 5
# Processed by: cddbd v1.5.2PL0 Copyright (c) Steve Scherf et al.
# Submitted via: ExactAudioCopyFreeDBPlugin 1.0
#
DISCID=770b8e0a
DTITLE=TERRY EVANS - Blues For Thought
DYEAR=1994
DGENRE=Blues
TTITLE0=Too Many Cooks
TTITLE1=Hey Mama Keep Your Big Mouth Shut
TTITLE2=Shakespeare Didn't Quote That
TTITLE3=Natcha Bone Lover
TTITLE4=That's The Way Love Turned Out For Me
TTITLE5=So Fine
TTITLE6=Get Your Lies Straight
TTITLE7=Live, Love And Be Friends
TTITLE8=Honey Boy
TTITLE9=I Want To Be Close To You, God
EXTD=
EXTT0=
EXTT1=
EXTT2=
EXTT3=
EXTT4=
EXTT5=
EXTT6=
EXTT7=
EXTT8=
EXTT9=
PLAYORDER=
